# File created by Blade
# Date/Time:  Fri Jan 16 19:14:28 2015
# Frame Rate: 120.000 fps
#------------------------------------------------------
:FULLY-SPECIFIED
:DEGREES
543
root 18.668692 35.611239 -23.599129 -164.803153 -0.698732 -178.481361
Spine -32.721486 1.962045 1.148541
Head 26.947328 -1.297159 -1.499341
LeftShoulder -33.408643 -50.817986 58.954779
LeftArm 35.800523 -63.520174 -7.212237
LeftForeArm -11.213091 -0.000000 121.548351
LeftHand -19.482086 -0.000000 -21.169417
LeftHandThumb1 -26.253704 0.000000 33.147579
RightShoulder -22.017016 16.971316 -37.321425
RightArm 34.930648 78.801760 0.748166
RightForeArm -83.822021 -0.000000 140.036333
RightHand -8.097534 -0.000000 42.867834
RightHandThumb1 -24.326973 -0.000000 -32.862282
LeftUpLeg -3.004703 7.264798 -0.161737
LeftLeg -7.699656 -0.000000 0.000000
LeftFoot -22.280034 28.185382 -17.344878
LeftToeBase 23.250945 -0.000000 -0.000000
RightUpLeg -5.051185 -9.450546 1.032312
RightLeg -3.986993 -0.000000 0.000000
RightFoot -21.192647 -22.031434 21.403738
RightToeBase 22.655316 -0.000000 -0.000000
544
root 18.668131 35.611072 -23.599998 -164.792047 -0.712551 -178.485665
Spine -32.738433 1.970926 1.162979
Head 26.953672 -1.295994 -1.498184
LeftShoulder -33.431477 -50.819087 58.963588
LeftArm 35.746900 -63.522575 -7.166270
LeftForeArm -11.194625 -0.000000 121.614900
LeftHand -19.514279 0.000000 -21.123066
LeftHandThumb1 -26.253704 0.000000 33.147579
RightShoulder -22.015672 16.979920 -37.340289
RightArm 34.847514 78.789927 0.668420
RightForeArm -83.905737 0.000000 140.091316
RightHand -8.063483 0.000000 42.866093
RightHandThumb1 -24.326973 -0.000000 -32.862282
LeftUpLeg -3.017773 7.264291 -0.165827
LeftLeg -7.695370 -0.000000 0.000000
LeftFoot -22.275276 28.166806 -17.341273
LeftToeBase 23.214694 -0.000000 -0.000000
RightUpLeg -5.055239 -9.459021 1.031656
RightLeg -3.992832 -0.000000 0.000000
RightFoot -21.199419 -22.042704 21.406970
RightToeBase 22.359059 -0.000000 -0.000000
545
root 18.667941 35.610745 -23.601012 -164.786118 -0.727475 -178.488548
Spine -32.748470 1.978419 1.177916
Head 26.957475 -1.309032 -1.499529
LeftShoulder -33.423957 -50.808913 58.940640
LeftArm 35.695786 -63.560022 -7.119279
LeftForeArm -11.161398 -0.000000 121.667460
LeftHand -19.519497 -0.000000 -21.081537
LeftHandThumb1 -26.253704 0.000000 33.147579
RightShoulder -22.024817 16.927941 -37.327581
RightArm 34.924831 78.834025 0.732343
RightForeArm -84.004518 -0.000000 140.124195
RightHand -8.017537 -0.000000 42.859250
RightHandThumb1 -24.326973 -0.000000 -32.862282
LeftUpLeg -3.024193 7.266244 -0.168275
LeftLeg -7.696919 -0.000000 0.000000
LeftFoot -22.284422 28.156326 -17.347978
LeftToeBase 23.237194 -0.000000 -0.000000
RightUpLeg -5.054477 -9.484963 1.033088
RightLeg -4.000558 -0.000000 0.000000
RightFoot -21.203563 -22.038168 21.418205
RightToeBase 22.393309 -0.000000 -0.000000
546
root 18.667638 35.610850 -23.601737 -164.775948 -0.742123 -178.491835
Spine -32.763884 1.989055 1.193468
Head 26.954994 -1.316723 -1.514424
LeftShoulder -33.422998 -50.811301 58.927978
LeftArm 35.635911 -63.590645 -7.075684
LeftForeArm -11.161058 -0.000000 121.724206
LeftHand -19.521000 -0.000000 -21.037765
LeftHandThumb1 -26.253704 0.000000 33.147579
RightShoulder -22.048525 16.925535 -37.356846
RightArm 35.186592 78.834941 1.024927
RightForeArm -83.976875 0.000000 140.148193
RightHand -8.006383 0.000000 42.788287
RightHandThumb1 -24.326973 -0.000000 -32.862282
LeftUpLeg -3.033067 7.262542 -0.170910
LeftLeg -7.701922 -0.000000 0.000000
LeftFoot -22.265170 28.150561 -17.344795
LeftToeBase 23.207199 -0.000000 -0.000000
RightUpLeg -5.059175 -9.501106 1.033709
RightLeg -4.003032 -0.000000 0.000000
RightFoot -21.199222 -22.014531 21.414542
RightToeBase 22.372280 -0.000000 -0.000000
547
root 18.667827 35.610857 -23.602254 -164.761816 -0.757568 -178.495450
Spine -32.782749 1.995926 1.205548
Head 26.944137 -1.323992 -1.525383
LeftShoulder -33.446431 -50.826067 58.968736
LeftArm 35.539295 -63.603212 -7.031517
LeftForeArm -11.143204 -0.000000 121.798475
LeftHand -19.558501 -0.000000 -21.014507
LeftHandThumb1 -26.253704 0.000000 33.147579
RightShoulder -22.055647 16.919896 -37.343803
RightArm 35.444997 78.858434 1.246176
RightForeArm -83.886387 -0.000000 140.168301
RightHand -8.097293 -0.000000 42.851321
RightHandThumb1 -24.326973 -0.000000 -32.862282
LeftUpLeg -3.048044 7.264640 -0.174600
LeftLeg -7.702737 -0.000000 0.000000
LeftFoot -22.262014 28.132466 -17.341570
LeftToeBase 23.242676 -0.000000 -0.000000
RightUpLeg -5.066455 -9.519035 1.035347
RightLeg -4.011102 -0.000000 0.000000
RightFoot -21.195456 -22.008650 21.433664
RightToeBase 22.381312 -0.000000 -0.000000
548
root 18.668509 35.610919 -23.602473 -164.742887 -0.775436 -178.499491
Spine -32.809598 2.002334 1.215192
Head 26.938015 -1.332970 -1.530732
LeftShoulder -33.419814 -50.795787 58.921925
LeftArm 35.503680 -63.665136 -7.018899
LeftForeArm -11.098828 -0.000000 121.844657
LeftHand -19.541762 -0.000000 -20.947110
LeftHandThumb1 -26.253704 0.000000 33.147579
RightShoulder -22.051830 16.882902 -37.331706
RightArm 35.597431 78.926312 1.381127
RightForeArm -83.961919 0.000000 140.183739
RightHand -8.010995 -0.000000 42.878487
RightHandThumb1 -24.326973 -0.000000 -32.862282
LeftUpLeg -3.067523 7.260876 -0.177120
LeftLeg -7.706058 -0.000000 0.000000
LeftFoot -22.255910 28.117858 -17.351279
LeftToeBase 23.220328 -0.000000 -0.000000
RightUpLeg -5.081631 -9.525404 1.037706
RightLeg -4.013518 -0.000000 0.000000
RightFoot -21.199951 -22.019381 21.416065
RightToeBase 22.400760 -0.000000 -0.000000
549
root 18.669384 35.611000 -23.603268 -164.729594 -0.795458 -178.505991
Spine -32.827627 2.010365 1.215009
Head 26.923365 -1.348111 -1.518102
LeftShoulder -33.408284 -50.786529 58.896323
LeftArm 35.519771 -63.715129 -7.063075
LeftForeArm -11.064511 0.000000 121.889846
LeftHand -19.566742 -0.000000 -20.927970
LeftHandThumb1 -26.253704 0.000000 33.147579
RightShoulder -22.053281 16.889116 -37.340962
RightArm 35.667009 78.946620 1.449440
RightForeArm -83.921941 -0.000000 140.200225
RightHand -7.997697 0.000000 42.883990
RightHandThumb1 -24.326973 -0.000000 -32.862282
LeftUpLeg -3.081346 7.252344 -0.180372
LeftLeg -7.710768 -0.000000 0.000000
LeftFoot -22.253378 28.111675 -17.362272
LeftToeBase 23.244434 -0.000000 -0.000000
RightUpLeg -5.081518 -9.526094 1.038073
RightLeg -4.032533 -0.000000 0.000000
RightFoot -21.202696 -22.038502 21.437987
RightToeBase 22.420216 -0.000000 -0.000000
550
root 18.670246 35.611140 -23.604126 -164.723745 -0.809628 -178.509086
Spine -32.835766 2.018024 1.221226
Head 26.902265 -1.347928 -1.495527
LeftShoulder -33.439320 -50.819231 58.919461
LeftArm 35.503352 -63.705342 -7.061737
LeftForeArm -10.984611 -0.000000 121.937014
LeftHand -19.600372 -0.000000 -20.905684
LeftHandThumb1 -26.253704 0.000000 33.147579
RightShoulder -22.043147 16.875931 -37.323156
RightArm 35.660863 78.994481 1.415530
RightForeArm -83.918495 -0.000000 140.197647
RightHand -8.005404 -0.000000 42.880457
RightHandThumb1 -24.326973 -0.000000 -32.862282
LeftUpLeg -3.088208 7.260662 -0.182000
LeftLeg -7.711545 -0.000000 0.000000
LeftFoot -22.244599 28.092740 -17.358660
LeftToeBase 23.226409 -0.000000 -0.000000
RightUpLeg -5.079994 -9.523341 1.037704
RightLeg -4.038381 -0.000000 0.000000
RightFoot -21.206262 -22.043302 21.427981
RightToeBase 22.396210 -0.000000 -0.000000
551
root 18.671845 35.611754 -23.603764 -164.696942 -0.833545 -178.511224
Spine -32.872301 2.021211 1.226434
Head 26.894967 -1.372856 -1.521547
LeftShoulder -33.429147 -50.847405 58.914309
LeftArm 35.469103 -63.718174 -7.044660
LeftForeArm -10.947947 -0.000000 121.980681
LeftHand -19.633538 0.000000 -20.900896
LeftHandThumb1 -26.253704 0.000000 33.147579
RightShoulder -22.044885 16.825796 -37.322159
RightArm 35.668651 79.047934 1.442263
RightForeArm -83.901329 0.000000 140.201089
RightHand -7.960134 -0.000000 42.814816
RightHandThumb1 -24.326973 -0.000000 -32.862282
LeftUpLeg -3.124716 7.256049 -0.180388
LeftLeg -7.698796 -0.000000 0.000000
LeftFoot -22.228150 28.074208 -17.336976
LeftToeBase 23.222578 -0.000000 -0.000000
RightUpLeg -5.083626 -9.472738 1.037325
RightLeg -4.074755 -0.000000 0.000000
RightFoot -21.201663 -22.099168 21.469868
RightToeBase 22.317941 -0.000000 -0.000000
552
root 18.672973 35.611728 -23.605090 -164.691011 -0.852970 -178.515813
Spine -32.880520 2.025016 1.230741
Head 26.876583 -1.355939 -1.483577
LeftShoulder -33.439958 -50.853453 58.902604
LeftArm 35.490606 -63.735247 -7.074759
LeftForeArm -10.897526 -0.000000 122.025865
LeftHand -19.681311 -0.000000 -20.890191
LeftHandThumb1 -26.253704 0.000000 33.147579
RightShoulder -22.031426 16.848486 -37.316616
RightArm 35.360971 79.026398 1.078934
RightForeArm -84.016253 -0.000000 140.217945
RightHand -7.980042 -0.000000 42.919812
RightHandThumb1 -24.326973 -0.000000 -32.862282
LeftUpLeg -3.124959 7.245473 -0.180566
LeftLeg -7.711737 -0.000000 0.000000
LeftFoot -22.225057 28.072373 -17.356598
LeftToeBase 23.212375 -0.000000 -0.000000
RightUpLeg -5.076053 -9.472121 1.036357
RightLeg -4.089456 -0.000000 0.000000
RightFoot -21.210002 -22.108569 21.481962
RightToeBase 22.369374 -0.000000 -0.000000
553
root 18.675330 35.611764 -23.605141 -164.677881 -0.878384 -178.523472
Spine -32.897167 2.024727 1.222835
Head 26.852379 -1.384035 -1.463988
LeftShoulder -33.441374 -50.833025 58.874663
LeftArm 35.558959 -63.761828 -7.162821
LeftForeArm -10.779388 -0.000000 122.082492
LeftHand -19.722186 0.000000 -20.880865
LeftHandThumb1 -26.253704 0.000000 33.147579
RightShoulder -22.028920 16.858164 -37.333366
RightArm 35.030326 78.990428 0.760835
RightForeArm -84.047772 -0.000000 140.245339
RightHand -8.004885 0.000000 42.910641
RightHandThumb1 -24.326973 -0.000000 -32.862282
LeftUpLeg -3.141907 7.219750 -0.179381
LeftLeg -7.710354 -0.000000 0.000000
LeftFoot -22.218289 28.064735 -17.369197
LeftToeBase 23.198010 -0.000000 -0.000000
RightUpLeg -5.079190 -9.478977 1.038302
RightLeg -4.102187 -0.000000 0.000000
RightFoot -21.223093 -22.113237 21.494647
RightToeBase 22.367455 -0.000000 -0.000000
